<svg width="147" height="117" viewBox="0 0 147 117" fill="none" xmlns="http://www.w3.org/2000/svg">
<path d="M142.577 104.576C142.577 103.018 141.685 102.281 140.166 102.281H136.999V106.82H140.243C141.711 106.82 142.577 106.076 142.577 104.576ZM132.569 98.0878H140.14C143.987 98.0878 147 100.652 147 104.601C147 108.55 143.974 111.064 140.089 111.064H136.999V115.872H132.576V98.0878H132.569ZM129.3 106.948C129.3 112.288 125.723 116.026 120.382 116.026C115.042 116.026 111.407 112.333 111.407 106.98C111.407 101.627 114.965 97.9339 120.382 97.9339C125.799 97.9339 129.3 101.607 129.3 106.948ZM124.876 106.948C124.876 104.153 123.274 102.159 120.389 102.159C117.504 102.159 115.837 104.172 115.837 106.98C115.837 109.788 117.472 111.801 120.389 111.801C123.306 111.801 124.876 109.743 124.876 106.948ZM39.3304 109.211L45.9976 98.0878H50.5813V115.846H46.3117V104.659L39.6381 115.846H35.0607V98.0878H39.3304V109.243V109.211ZM27.6306 104.576C27.6306 103.018 26.7395 102.281 25.2201 102.281H22.0532V106.82H25.2971C26.7652 106.82 27.6306 106.076 27.6306 104.576ZM17.6233 98.0878H25.1945C29.041 98.0878 32.0541 100.652 32.0541 104.601C32.0541 108.55 29.0282 111.038 25.1432 111.038H22.0532V115.846H17.6297V98.0878H17.6233ZM59.7937 104.358H60.3258L65.4544 98.0878H71.1601L63.9864 106.326L71.7563 115.853H65.916L60.2617 108.377H59.8193V115.846H55.3959V98.0878H59.8193V104.358H59.7937ZM89.2257 106.922C89.2257 101.582 85.7254 97.9083 80.3083 97.9083C74.8911 97.9083 71.3331 101.601 71.3331 106.954C71.3331 112.307 74.9745 116 80.3083 116C85.6421 116 89.2257 112.262 89.2257 106.922ZM84.8023 106.922C84.8023 109.717 83.2316 111.775 80.3147 111.775C77.3978 111.775 75.763 109.762 75.763 106.954C75.763 104.146 77.4234 102.133 80.3147 102.133C83.206 102.133 84.8023 104.127 84.8023 106.922ZM14.6679 98.0878V102.313H9.53929V115.846H5.12865V102.281H0V98.0878H14.6679ZM98.8484 102.313C98.7522 103.543 98.6496 104.787 98.515 106.025C98.3804 107.262 98.1945 108.589 97.9509 109.871C97.2457 113.468 95.3865 115.75 91.7901 115.929C91.4246 115.929 91.0721 115.929 90.7066 115.929V111.666C92.6876 111.717 93.271 110.974 93.6171 109.102C93.8543 107.884 94.0659 106.268 94.2582 104.614C94.4826 102.46 94.6429 100.293 94.7647 98.1262H108.029V115.846H103.605V102.281L98.8484 102.313Z" fill="#004F9F"/>
<path d="M37.2084 54.365L54.6843 37.5618L15.5911 0H51.0493L89.8989 37.3311L72.173 54.365H37.2084Z" fill="#004F9F"/>
<path d="M108.17 88.9521L72.173 54.365H107.625L143.622 88.9521H108.17Z" fill="#E41B13"/>
</svg>
